<svg xmlns="http://www.w3.org/2000/svg" xmlns:xlink="http://www.w3.org/1999/xlink" width="150" height="75"><polygon fill="#D2D935" points="109.627,36.117 101.725,1.12 1.125,1.12 1.125,36.117"/><defs><path id="a" d="M1.188 63.586v-62.529h96.324c1.326 0 5.177-.127 9.722 2.935 4.545 3.063 40.65 37.262 40.65 37.262v22.333h-146.696z"/></defs><clipPath id="b"><use xlink:href="#a" overflow="visible"/></clipPath><circle clip-path="url(#b)" fill="#253781" stroke="#000" stroke-width="2.007" stroke-miterlimit="10" cx="1.125" cy="1.12" r="11.833"/><circle clip-path="url(#b)" fill="#253781" stroke="#000" stroke-width="2.007" stroke-miterlimit="10" cx="-239.864" cy="12.952" r="11.833"/><polygon points="111.257,5.761 100.972,1.057 100.972,30.597 137.961,30.597"/><polygon fill="#E30613" points="149.326,49.978 1.188,49.978 1.188,31.539 138.414,31.539 148.824,40.757"/><polygon fill="#253781" points="118.281,12.952 100.972,12.952 100.972,1.12 106.239,2.75 112.009,7.036"/><polygon fill="#D2D935" points="149.264,49.622 1.125,49.622 1.125,64.339 148.511,64.339"/><path d="M98.185 2.123c1.562 0 5.143.107 9.31 2.886 4.515 3.011 40.39 36.627 40.39 36.627v21.951h-145.757v-61.463h95.707l.35-.001m0-2.007h-96.057c-1.108 0-2.007.898-2.007 2.007v61.463c0 1.108.898 2.007 2.007 2.007h145.755c1.108 0 2.007-.898 2.007-2.007v-21.951c0-.555-.229-1.085-.635-1.465-1.47-1.377-36.049-33.765-40.648-36.832-4.833-3.222-9.041-3.222-10.422-3.222zm38.921 29.728h-35.088v-27.789l-2.008-.399v28.188c0 1.108.898 2.008 2.008 2.008h37.256l-2.168-2.008zm-11.612 22.885c-6.634 0-12.03 5.396-12.03 12.029h2.007c0 5.537 4.487 10.023 10.023 10.023 5.535 0 10.022-4.486 10.022-10.023h2.007c0-6.633-5.395-12.029-12.029-12.029z"/><circle fill="#D2D935" cx="125.494" cy="64.758" r="3.951"/><path d="M31.543 52.729c-6.633 0-12.03 5.396-12.03 12.029h2.007c0 5.537 4.487 10.023 10.023 10.023s10.023-4.486 10.023-10.023h2.007c0-6.633-5.397-12.029-12.03-12.029z"/><circle fill="#D2D935" cx="31.543" cy="64.758" r="3.951"/><path fill="#253781" d="M33.492 41.006h-8.999v-21.176l-4.78 2.44-1.41-6.443 8.299-3.621h6.889v28.8z"/><path fill="#253781" d="M96.497 33.255v-1.695h-3.427v-19.411h-8.116l-16.275 20.173 1.557 8.613h13.835v8.736h8.999v-8.736h3.464v-7.68h-.037zm-12.426-1.695h-6.692l6.692-8.481v8.481z"/><path fill="#253781" d="M65.557 33.255v-1.695h-3.442v-19.411h-8.114l-16.276 20.173 1.557 8.613h13.835v8.736h8.999v-8.736h3.466v-7.68h-.025zm-12.44-1.695h-6.693l6.693-8.482v8.482z"/></svg>