<?xml version="1.0" encoding="utf-8"?>
<!-- Generator: Adobe Illustrator 15.0.2, SVG Export Plug-In . SVG Version: 6.00 Build 0)  -->
<!DOCTYPE svg PUBLIC "-//W3C//DTD SVG 1.1//EN" "http://www.w3.org/Graphics/SVG/1.1/DTD/svg11.dtd">
<svg version="1.1" id="Livello_1" xmlns="http://www.w3.org/2000/svg" xmlns:xlink="http://www.w3.org/1999/xlink" x="0px" y="0px"
	 width="999.875px" height="1394.825px" viewBox="0 0 999.875 1394.825" enable-background="new 0 0 999.875 1394.825"
	 xml:space="preserve">
<path fill="#144A92" d="M124,1338.5H6.5c-3.038,0-5.5-2.463-5.5-5.5V709.43c0-3.035,2.46-5.498,5.497-5.5
	c158.431-0.098,159.353-0.008,159.699,0.025c3.023,0.293,5.237,2.979,4.945,6.004c-0.283,2.928-2.823,5.102-5.715,4.967
	c-3.593-0.068-98.777-0.031-153.427,0.002V1327.5h106.5V1289c0-3.037,2.462-5.5,5.5-5.5s5.5,2.463,5.5,5.5v44
	C129.5,1336.038,127.038,1338.5,124,1338.5z"/>
<path fill="#144A92" d="M993.875,1338.5h-117.5c-3.037,0-5.5-2.463-5.5-5.5v-44c0-3.039,2.463-5.5,5.5-5.5s5.5,2.461,5.5,5.5v38.5
	h106.5V714.93H750.001c-3.037,0-5.5-2.463-5.5-5.5c0-3.035,2.463-5.5,5.5-5.5h243.874c3.037,0,5.5,2.465,5.5,5.5V1333
	C999.375,1336.038,996.912,1338.5,993.875,1338.5z"/>
<rect y="95" fill="#7AA6C9" width="490.875" height="55"/>
<rect fill="#7AA6C9" width="999.375" height="55"/>
<rect x="217.984" y="592.917" fill="#7AA6C9" width="484.937" height="55"/>
<rect x="36.026" y="776.854" fill="#144A92" width="414.808" height="55"/>
<rect x="36.026" y="872.854" fill="#7AA6C9" width="414.808" height="55"/>
<rect x="36.026" y="969.688" fill="#7AA6C9" width="414.808" height="328.146"/>
<rect x="469.9" y="776.854" fill="#144A92" width="490.975" height="55"/>
<rect x="469.9" y="872.854" fill="#7AA6C9" width="490.975" height="424.979"/>
<rect y="300.979" fill="#7AA6C9" width="999.875" height="55"/>
<rect y="402.896" fill="#7AA6C9" width="999.875" height="149.729"/>
<rect x="584" y="174" fill="#7AA6C9" width="415.875" height="101"/>
<polygon fill="#4682B4" points="452.119,196.979 450.922,196.979 447.499,196.979 44.583,196.979 39.964,196.979 1.167,224.479 
	39.964,251.979 44.583,251.979 447.499,251.979 450.922,251.979 452.119,251.979 490.916,224.479 "/>
<polygon fill="#4682B4" points="689.099,683.929 687.905,683.929 684.479,683.929 236.583,683.929 233,683.929 231.964,683.929 
	193.167,711.428 231.964,738.928 233,738.928 236.583,738.928 684.479,738.928 687.905,738.928 689.099,738.928 727.896,711.428 "/>
<polygon fill="#7AA6C9" points="300.922,59.042 267.961,75.022 235,59.042 235,73 267.922,88.962 267.922,89 267.961,88.981 268,89 
	268,88.962 300.922,73 "/>
<polygon fill="#7AA6C9" points="300.922,159.021 267.961,175.002 235,159.021 235,172.979 267.922,188.94 267.922,188.979 
	267.961,188.96 268,188.979 268,188.94 300.922,172.979 "/>
<polygon fill="#4682B4" points="528,191.519 543.98,224.479 528,257.44 541.957,257.44 557.92,224.519 557.957,224.519 
	557.938,224.479 557.957,224.44 557.92,224.44 541.957,191.519 "/>
<polygon fill="#4682B4" points="300.922,261.021 267.961,277.002 235,261.021 235,274.979 267.922,290.94 267.922,290.979 
	267.961,290.96 268,290.979 268,290.94 300.922,274.979 "/>
<polygon fill="#7AA6C9" points="495.492,557.355 462.531,573.336 429.57,557.355 429.57,571.312 462.492,587.275 462.492,587.312 
	462.531,587.294 462.57,587.312 462.57,587.275 495.492,571.312 "/>
<polygon fill="#7AA6C9" points="495.492,650.355 462.531,666.336 429.57,650.355 429.57,664.312 462.492,680.275 462.492,680.312 
	462.531,680.294 462.57,680.312 462.57,680.275 495.492,664.312 "/>
<polygon fill="#4682B4" points="658.492,743.356 625.531,759.336 592.57,743.356 592.57,757.313 625.492,773.276 625.492,773.313 
	625.531,773.293 625.57,773.313 625.57,773.276 658.492,757.313 "/>
<polygon fill="#144A92" points="770.662,742.389 754.682,709.428 770.662,676.468 756.705,676.468 740.742,709.389 740.705,709.389 
	740.724,709.428 740.705,709.467 740.742,709.467 756.705,742.389 "/>
<polygon fill="#144A92" points="143.704,676.47 159.685,709.43 143.704,742.391 157.661,742.391 173.624,709.469 173.661,709.469 
	173.642,709.43 173.661,709.391 173.624,709.391 157.661,676.47 "/>
<polygon fill="#144A92" points="658.492,838.356 625.531,854.336 592.57,838.356 592.57,852.313 625.492,868.276 625.492,868.313 
	625.531,868.293 625.57,868.313 625.57,868.276 658.492,852.313 "/>
<polygon fill="#4682B4" points="338.992,743.356 306.031,759.336 273.07,743.356 273.07,757.313 305.992,773.276 305.992,773.313 
	306.031,773.293 306.07,773.313 306.07,773.276 338.992,757.313 "/>
<polygon fill="#144A92" points="338.992,838.356 306.031,854.336 273.07,838.356 273.07,852.313 305.992,868.276 305.992,868.313 
	306.031,868.293 306.07,868.313 306.07,868.276 338.992,852.313 "/>
<polygon fill="#7AA6C9" points="338.992,933.856 306.031,949.836 273.07,933.856 273.07,947.813 305.992,963.776 305.992,963.813 
	306.031,963.793 306.07,963.813 306.07,963.776 338.992,947.813 "/>
<polygon fill="#7AA6C9" points="300.922,365.271 267.961,381.252 235,365.271 235,379.229 267.922,395.191 267.922,395.229 
	267.961,395.21 268,395.229 268,395.191 300.922,379.229 "/>
<rect x="31.667" y="10.999" fill="none" width="946.875" height="35.334"/>
<text transform="matrix(1 0 0 1 31.668 37.4937)" fill="#FFFFFF" font-family="'ArialMT'" font-size="37">Bewusstlose Person; Bewegungs-/ reaktionsloses Kind</text>
<rect x="114.147" y="108.999" fill="none" width="323.333" height="35.334"/>
<text transform="matrix(1 0 0 1 114.1475 135.4937)" fill="#FFFFFF" font-family="'ArialMT'" font-size="37">Nach Hilfe rufen</text>
<rect x="104.58" y="210.021" fill="none" width="420.235" height="35.334"/>
<text transform="matrix(1 0 0 1 104.5801 236.5142)" fill="#FFFFFF" font-family="'ArialMT'" font-size="37">Atmung normal?</text>
<rect x="313.384" y="265.647" fill="none" width="91.616" height="35.333"/>
<text transform="matrix(1 0 0 1 313.3818 292.1401)" fill="#3C3C3B" font-family="'ArialMT'" font-size="37">Nein</text>
<rect x="490.884" y="265.647" fill="none" width="43.116" height="35.333"/>
<text transform="matrix(1 0 0 1 490.8848 292.1401)" fill="#3C3C3B" font-family="'ArialMT'" font-size="37">Ja</text>
<rect x="357.767" y="605.75" fill="none" width="420.234" height="35.334"/>
<text transform="matrix(1 0 0 1 357.769 632.2437)" fill="#FFFFFF" font-family="'ArialMT'" font-size="37">AED trifft ein</text>
<rect x="366.283" y="697.412" fill="none" width="231.231" height="35.334"/>
<text transform="matrix(1 0 0 1 366.2842 723.9058)" fill="#FFFFFF" font-family="'ArialMT'" font-size="37">Rhythmus?</text>
<rect x="131.768" y="792.522" fill="none" width="231.234" height="35.334"/>
<text transform="matrix(1 0 0 1 131.7676 819.0142)" fill="#FFFFFF" font-family="'ArialMT'" font-size="37">defibrillierbar</text>
<rect x="112.768" y="886.522" fill="none" width="271.234" height="35.334"/>
<text transform="matrix(1 0 0 1 112.7676 913.0142)" fill="#FFFFFF" font-family="'ArialMT'" font-size="37">1 Defibrillation</text>
<rect x="171.415" y="1311.522" fill="none" width="670.231" height="78.479"/>
<text transform="matrix(1 0 0 1 171.415 1338.0142)" fill="#3C3C3B" font-family="'ArialMT'" font-size="37">BLS = Basic Life Support</text>
<text transform="matrix(1 0 0 1 171.415 1384.0142)" fill="#3C3C3B" font-family="'ArialMT'" font-size="37">AED = Automated external defibrillation</text>
<rect x="37.683" y="980.688" fill="none" width="416.771" height="310.312"/>
<text transform="matrix(1 0 0 1 95.6143 1007.1821)" fill="#FFFFFF" font-family="'ArialMT'" font-size="37">BLS sofort wieder</text>
<text transform="matrix(1 0 0 1 92.4893 1053.1821)" fill="#FFFFFF" font-family="'ArialMT'" font-size="37">aufnehmen; 30 : 2</text>
<text transform="matrix(1 0 0 1 85.166 1098.6821)" fill="#FFFFFF" font-family="'ArialMT'" font-size="37">während 2 Minuten</text>
<text transform="matrix(1 0 0 1 115.2646 1144.1821)" fill="#FFFFFF" font-family="'Arial-BoldMT'" font-size="37">oder</text>
<text transform="matrix(1 0 0 1 198.1079 1144.1821)" fill="#FFFFFF" font-family="'ArialMT'" font-size="37">mind. 100</text>
<text transform="matrix(1 0 0 1 60.7061 1189.6821)" fill="#FFFFFF" font-family="'ArialMT'" font-size="37">Thoraxkompressionen</text>
<text transform="matrix(1 0 0 1 110.5537 1235.1821)" fill="#FFFFFF" font-family="'ArialMT'" font-size="37">pro Minute ohne</text>
<text transform="matrix(1 0 0 1 160.6982 1280.6802)" fill="#FFFFFF" font-family="'ArialMT'" font-size="37">Beatmung</text>
<rect x="560.886" y="793.522" fill="none" width="394.652" height="35.334"/>
<text transform="matrix(1 0 0 1 560.8857 820.0142)" fill="#FFFFFF" font-family="'ArialMT'" font-size="37">nicht defibrillierbar</text>
<rect x="464.9" y="888.522" fill="none" width="490.975" height="393.479"/>
<text transform="matrix(1 0 0 1 562.3027 915.0142)" fill="#FFFFFF" font-family="'ArialMT'" font-size="37">BLS sofort wieder</text>
<text transform="matrix(1 0 0 1 487.8091 960.5142)" fill="#FFFFFF" font-family="'ArialMT'" font-size="37">aufnehmen; 30 : 2 während</text>
<text transform="matrix(1 0 0 1 497.6143 1006.0142)" fill="#FFFFFF" font-family="'ArialMT'" font-size="37">2 Minuten oder mind. 100</text>
<text transform="matrix(1 0 0 1 486.5249 1051.0142)" fill="#FFFFFF" font-family="'ArialMT'" font-size="37">Thoraxkompressionen pro</text>
<text transform="matrix(1 0 0 1 511.3613 1096.5142)" fill="#FFFFFF" font-family="'ArialMT'" font-size="37">Minute ohne Beatmung.</text>
<text transform="matrix(1 0 0 1 508.6094 1142.0142)" fill="#FFFFFF" font-family="'ArialMT'" font-size="37">Mit BLS weiterfahren bis</text>
<text transform="matrix(1 0 0 1 539.1562 1187.5122)" fill="#FFFFFF" font-family="'ArialMT'" font-size="37">professionelle Helfer</text>
<text transform="matrix(1 0 0 1 532.1797 1233.0122)" fill="#FFFFFF" font-family="'ArialMT'" font-size="37">übernehmen oder die</text>
<text transform="matrix(1 0 0 1 546.7363 1278.5122)" fill="#FFFFFF" font-family="'ArialMT'" font-size="37">Person sich bewegt</text>
<rect x="589.963" y="184.979" fill="none" width="408.912" height="74.041"/>
<text transform="matrix(1 0 0 1 661.1934 211.4722)" fill="#FFFFFF" font-family="'ArialMT'" font-size="37">Seitenlagerung;</text>
<text transform="matrix(1 0 0 1 606.1621 256.4712)" fill="#FFFFFF" font-family="'ArialMT'" font-size="37">Bewusstlosenlagerung</text>
<rect x="108.729" y="313.979" fill="none" width="846.271" height="74.046"/>
<text transform="matrix(1 0 0 1 108.7305 340.4712)" fill="#FFFFFF" font-family="'ArialMT'" font-size="37">Alarmierung</text>
<text transform="matrix(1 0 0 1 322.6948 340.4712)" fill="#FFFFFF" font-family="'ArialMT'" font-size="37">T</text>
<text transform="matrix(1 0 0 1 341.603 340.4712)" fill="#FFFFFF" font-family="'ArialMT'" font-size="37">el. 144;</text>
<text transform="matrix(1 0 0 1 474.873 340.4712)" fill="#FFFFFF" font-family="'ArialMT'" font-size="37">AED</text>
<text transform="matrix(1 0 0 1 552.1719 340.4712)" fill="#FFFFFF" font-family="'ArialMT'" font-size="37">holen oder anfordern</text>
<rect x="-15" y="417.979" fill="none" width="1033.742" height="122.021"/>
<text transform="matrix(1 0 0 1 8.3516 444.4717)" fill="#FFFFFF" font-family="'ArialMT'" font-size="37">30</text>
<text transform="matrix(1 0 0 1 60.4502 444.4717)" fill="#FFFFFF" font-family="'ArialMT'" font-size="37">Thoraxkompressionen gefolgt von 2 Beatmungsstössen</text>
<text transform="matrix(1 0 0 1 29.6846 489.4717)" fill="#FFFFFF" font-family="'Arial-BoldMT'" font-size="37">oder</text>
<text transform="matrix(1 0 0 1 112.9707 489.4717)" fill="#FFFFFF" font-family="'ArialMT'" font-size="37">mind. 100</text>
<text transform="matrix(1 0 0 1 303.897 489.4717)" fill="#FFFFFF" font-family="'ArialMT'" font-size="37">Thoraxkompressionen pro Minute ohne</text>
<text transform="matrix(1 0 0 1 280.7168 535.4717)" fill="#FFFFFF" font-family="'ArialMT'" font-size="37">Beatmung bis</text>
<text transform="matrix(1 0 0 1 520.9746 535.4717)" fill="#FFFFFF" font-family="'ArialMT'" font-size="37">AED eintrifft</text>
</svg>
