<svg xmlns="http://www.w3.org/2000/svg" width="999.875" height="1394.824"><path fill="#144A92" d="M124.001 1338.498h-117.5c-3.039 0-5.5-2.463-5.5-5.5v-623.568c0-3.037 2.459-5.498 5.496-5.5 158.432-.1 159.354-.01 159.699.025 3.023.293 5.238 2.979 4.945 6.004-.283 2.928-2.822 5.1-5.715 4.965-3.592-.067-98.777-.031-153.426.002v612.572h106.5v-38.5c0-3.037 2.461-5.5 5.5-5.5 3.037 0 5.5 2.463 5.5 5.5v44c.001 3.037-2.462 5.5-5.499 5.5z"/><path fill="#144A92" d="M993.877 1338.498h-117.5c-3.037 0-5.5-2.463-5.5-5.5v-44c0-3.037 2.463-5.5 5.5-5.5s5.5 2.463 5.5 5.5v38.5h106.5v-612.568h-238.375c-3.037 0-5.5-2.463-5.5-5.5s2.463-5.5 5.5-5.5h243.875c3.037 0 5.5 2.463 5.5 5.5v623.568c0 3.037-2.463 5.5-5.5 5.5z"/><polygon fill="#7AA6C9" points="0.001,-0.002 0.001,55.041 510.667,55.041 510.667,100.936 999.877,100.936 999.877,55.041 999.877,54.248 999.877,-0.002"/><rect x=".001" y="94.998" fill="#7AA6C9" width="490.876" height="55"/><rect x="217.985" y="592.916" fill="#7AA6C9" width="484.937" height="55"/><rect x="36.026" y="776.854" fill="#144A92" width="414.81" height="55"/><rect x="36.026" y="872.854" fill="#7AA6C9" width="414.81" height="55"/><rect x="36.026" y="969.688" fill="#7AA6C9" width="414.81" height="328.146"/><rect x="469.902" y="776.854" fill="#144A92" width="490.975" height="55"/><rect x="469.902" y="872.854" fill="#7AA6C9" width="490.975" height="424.979"/><rect x=".001" y="300.979" fill="#7AA6C9" width="999.876" height="55"/><rect x=".001" y="402.895" fill="#7AA6C9" width="999.876" height="149.729"/><rect x="584.667" y="196.98" fill="#7AA6C9" width="415.21" height="54.999"/><polygon fill="#4682B4" points="452.121,196.979 450.924,196.979 447.5,196.979 44.583,196.979 39.964,196.979 1.167,224.479 39.964,251.979 44.583,251.979 447.5,251.979 450.924,251.979 452.121,251.979 490.918,224.479"/><polygon fill="#4682B4" points="689.1,683.928 687.906,683.928 684.48,683.928 236.583,683.928 233.001,683.928 231.964,683.928 193.167,711.428 231.964,738.928 233.001,738.928 236.583,738.928 684.48,738.928 687.906,738.928 689.1,738.928 727.896,711.428"/><polygon fill="#7AA6C9" points="300.923,59.041 267.962,75.021 235.001,59.041 235.001,72.998 267.923,88.961 267.923,88.998 267.962,88.98 268.001,88.998 268.001,88.961 300.923,72.998"/><polygon fill="#7AA6C9" points="300.923,159.02 267.962,175 235.001,159.02 235.001,172.979 267.923,188.939 267.923,188.979 267.962,188.959 268.001,188.979 268.001,188.939 300.923,172.979"/><polygon fill="#4682B4" points="526.003,191.518 541.983,224.479 526.003,257.439 539.96,257.439 555.923,224.518 555.96,224.518 555.94,224.479 555.96,224.439 555.923,224.439 539.96,191.518"/><polygon fill="#4682B4" points="300.923,261.02 267.962,277 235.001,261.02 235.001,274.979 267.923,290.939 267.923,290.979 267.962,290.959 268.001,290.979 268.001,290.939 300.923,274.979"/><polygon fill="#7AA6C9" points="495.494,557.354 462.533,573.334 429.572,557.354 429.572,571.311 462.494,587.273 462.494,587.311 462.533,587.293 462.572,587.311 462.572,587.273 495.494,571.311"/><polygon fill="#7AA6C9" points="495.494,650.354 462.533,666.334 429.572,650.354 429.572,664.311 462.494,680.273 462.494,680.311 462.533,680.293 462.572,680.311 462.572,680.273 495.494,664.311"/><polygon fill="#4682B4" points="658.494,743.354 625.533,759.334 592.572,743.354 592.572,757.311 625.494,773.273 625.494,773.311 625.533,773.293 625.572,773.311 625.572,773.273 658.494,757.311"/><polygon fill="#144A92" points="770.664,742.389 754.684,709.428 770.664,676.467 756.707,676.467 740.744,709.389 740.707,709.389 740.725,709.428 740.707,709.467 740.744,709.467 756.707,742.389"/><polygon fill="#144A92" points="143.704,676.469 159.685,709.43 143.704,742.391 157.661,742.391 173.624,709.469 173.661,709.469 173.642,709.43 173.661,709.391 173.624,709.391 157.661,676.469"/><polygon fill="#144A92" points="658.494,838.354 625.533,854.334 592.572,838.354 592.572,852.311 625.494,868.273 625.494,868.311 625.533,868.293 625.572,868.311 625.572,868.273 658.494,852.311"/><polygon fill="#4682B4" points="338.994,743.354 306.033,759.334 273.071,743.354 273.071,757.311 305.994,773.273 305.994,773.311 306.033,773.293 306.072,773.311 306.072,773.273 338.994,757.311"/><polygon fill="#144A92" points="338.994,838.354 306.033,854.334 273.071,838.354 273.071,852.311 305.994,868.273 305.994,868.311 306.033,868.293 306.072,868.311 306.072,868.273 338.994,852.311"/><polygon fill="#7AA6C9" points="338.994,933.854 306.033,949.834 273.071,933.854 273.071,947.811 305.994,963.773 305.994,963.811 306.033,963.793 306.072,963.811 306.072,963.773 338.994,947.811"/><polygon fill="#7AA6C9" points="300.923,365.27 267.962,381.25 235.001,365.27 235.001,379.227 267.923,395.189 267.923,395.227 267.962,395.209 268.001,395.227 268.001,395.189 300.923,379.227"/><rect x="114.333" y="11.664" width="819.335" height="35.334" fill="none"/><text transform="translate(114.335 38.157)" fill="#fff" font-family="'ArialMT'" font-size="37">Personne inconsciente; Enfant/nourrisson sans</text><rect x="108.667" y="109.998" width="409.667" height="35.334" fill="none"/><text transform="translate(108.666 136.49)" fill="#fff" font-family="'ArialMT'" font-size="37">Appeler de l’aide</text><rect x="63.333" y="210.02" width="420.235" height="35.334" fill="none"/><text transform="translate(63.335 236.513)" fill="#fff" font-family="'ArialMT'" font-size="37">Respiration normale?</text><rect x="321.385" y="265.646" width="91.617" height="35.332" fill="none"/><text transform="translate(321.383 292.139)" fill="#3C3C3B" font-family="'ArialMT'" font-size="37">non</text><rect x="473.568" y="265.646" width="59.435" height="35.332" fill="none"/><text transform="translate(473.568 292.139)" fill="#3C3C3B" font-family="'ArialMT'" font-size="37">oui</text><rect x="323.768" y="605.748" width="420.234" height="35.334" fill="none"/><text transform="translate(323.767 632.242)" fill="#fff" font-family="'ArialMT'" font-size="37">Arrivée de l’AED</text><rect x="385.77" y="697.41" width="231.234" height="35.334" fill="none"/><text transform="translate(385.767 723.904)" fill="#fff" font-family="'ArialMT'" font-size="37">Rythme?</text><rect x="143.769" y="794.52" width="231.235" height="35.334" fill="none"/><text transform="translate(143.769 821.012)" fill="#fff" font-family="'ArialMT'" font-size="37">défibrillable</text><rect x="115.704" y="886.52" width="271.235" height="35.334" fill="none"/><text transform="translate(115.705 913.012)" fill="#fff" font-family="'ArialMT'" font-size="37">1 défibrillation</text><rect x="171.415" y="1311.52" width="670.233" height="78.479" fill="none"/><text transform="translate(171.415 1338.012)" fill="#3C3C3B" font-family="'ArialMT'" font-size="37">BLS = Basic Life Support</text><text transform="translate(171.415 1384.012)" fill="#3C3C3B" font-family="'ArialMT'" font-size="37">AED = Automated external defibrillation</text><rect x="37.683" y="980.688" width="416.772" height="310.312" fill="none"/><text transform="translate(130.648 1007.181)" fill="#fff" font-family="'ArialMT'" font-size="37">Reccomencer</text><text transform="translate(52.227 1052.681)" fill="#fff" font-family="'ArialMT'" font-size="37">immédiatament le BLS,</text><text transform="translate(110.397 1098.181)" fill="#fff" font-family="'ArialMT'" font-size="37">30 : 2 pendant 2</text><text transform="translate(73.036 1143.681)" fill="#fff" font-family="'ArialMT'" font-size="37">minutes ou au moins</text><text transform="translate(93.993 1189.181)" fill="#fff" font-family="'ArialMT'" font-size="37">100 compressions</text><text transform="translate(72.777 1234.681)" fill="#fff" font-family="'ArialMT'" font-size="37">thoraciques à la min.</text><text transform="translate(97.02 1280.18)" fill="#fff" font-family="'ArialMT'" font-size="37">sans insu</text><text transform="translate(255.662 1280.18)" fill="#fff" font-family="'ArialMT'" font-size="37">f</text><text transform="translate(265.532 1280.18)" fill="#fff" font-family="'ArialMT'" font-size="37">flations.</text><rect x="578.09" y="794.52" width="277.234" height="35.334" fill="none"/><text transform="translate(578.088 821.012)" fill="#fff" font-family="'ArialMT'" font-size="37">Non défibrillable</text><rect x="471.218" y="888.354" width="490.976" height="393.479" fill="none"/><text transform="translate(592.902 914.848)" fill="#fff" font-family="'ArialMT'" font-size="37">Recommencer</text><text transform="translate(520.643 960.348)" fill="#fff" font-family="'ArialMT'" font-size="37">immédiatament le BLS,</text><text transform="translate(475.698 1005.848)" fill="#fff" font-family="'ArialMT'" font-size="37">30 : 2 pendant 2 minutes</text><text transform="translate(911.766 1005.848)" fill="#fff" font-family="'Arial-BoldMT'" font-size="37">ou</text><text transform="translate(480.15 1051.348)" fill="#fff" font-family="'ArialMT'" font-size="37">au moins 100 compressions</text><text transform="translate(495.31 1096.848)" fill="#fff" font-family="'ArialMT'" font-size="37">thoraciques à la min. sans</text><text transform="translate(494.606 1142.348)" fill="#fff" font-family="'ArialMT'" font-size="37">insu</text><text transform="translate(564.405 1142.348)" fill="#fff" font-family="'ArialMT'" font-size="37">f</text><text transform="translate(574.498 1142.348)" fill="#fff" font-family="'ArialMT'" font-size="37">flations. Poursuivre le</text><text transform="translate(507.323 1187.847)" fill="#fff" font-family="'ArialMT'" font-size="37">BLS jusqu’a l’arrivée des</text><text transform="translate(492.231 1233.347)" fill="#fff" font-family="'ArialMT'" font-size="37">secouristes professionnels</text><text transform="translate(517.207 1278.847)" fill="#fff" font-family="'ArialMT'" font-size="37">ou que le patient bouge</text><rect x="648.336" y="208.333" width="304.666" height="37.021" fill="none"/><text transform="translate(665.189 234.824)" fill="#fff" font-family="'ArialMT'" font-size="37">Position latérale</text><rect x="4.001" y="314.977" width="1009.061" height="74.043" fill="none"/><text transform="translate(4.001 341.469)" fill="#fff" font-family="'ArialMT'" font-size="37">Donner l’alarme, tél. 144;</text><text transform="translate(430.611 341.469)" fill="#fff" font-family="'ArialMT'" font-size="37">Aller chercher ou demander l’AED</text><rect x="12.296" y="418.977" width="978.704" height="122.021" fill="none"/><text transform="translate(16.551 445.469)" fill="#fff" font-family="'ArialMT'" font-size="37">30 compressions thoraciques suivies de 2 insu</text><text transform="translate(799.947 445.469)" fill="#fff" font-family="'ArialMT'" font-size="37">f</text><text transform="translate(809.964 445.469)" fill="#fff" font-family="'ArialMT'" font-size="37">flations</text><text transform="translate(941.141 445.469)" fill="#fff" font-family="'Arial-BoldMT'" font-size="37">ou</text><text transform="translate(101.927 490.469)" fill="#fff" font-family="'ArialMT'" font-size="37">100 compressions thoraciques à la minute sans</text><text transform="translate(185.562 535.469)" fill="#fff" font-family="'ArialMT'" font-size="37">insu</text><text transform="translate(255.066 535.469)" fill="#fff" font-family="'ArialMT'" font-size="37">f</text><text transform="translate(265.084 535.469)" fill="#fff" font-family="'ArialMT'" font-size="37">flations jusqu’à l’arrivée de l’AED</text><rect x="522.004" y="54.354" width="425.766" height="35.332" fill="none"/><text transform="translate(522.003 80.846)" fill="#fff" font-family="'ArialMT'" font-size="37">mouvement ou réaction</text></svg>