<svg xmlns="http://www.w3.org/2000/svg" width="30" height="30"><path fill="#D4321A" d="M15 2.771c-6.623 0-11.992 5.476-11.992 12.229 0 6.754 5.369 12.229 11.992 12.229 6.624 0 11.993-5.475 11.993-12.229 0-6.753-5.369-12.229-11.993-12.229zm.003 22.85c-5.747 0-10.407-4.758-10.407-10.625 0-5.868 4.66-10.626 10.407-10.626 5.748 0 10.407 4.758 10.407 10.626 0 5.867-4.659 10.625-10.407 10.625z"/><circle fill="#D4321A" cx="15" cy="15" r="8.041"/><rect x="13.546" fill="#D4321A" width="2.907" height="3.938"/><rect x="13.547" y="26.062" fill="#D4321A" width="2.907" height="3.938"/><rect y="13.546" fill="#D4321A" width="3.938" height="2.908"/><rect x="26.062" y="13.546" fill="#D4321A" width="3.938" height="2.908"/></svg>