<svg xmlns="http://www.w3.org/2000/svg" width="25" height="25"><circle fill="#005090" cx="12.5" cy="12.5" r="12.5"/><path fill="#fff" stroke="#fff" stroke-width=".5" stroke-miterlimit="10" d="M14.203 9.44l-2.28 8.064c-.149.545-.229.871-.229.979 0 .123.037.223.109.299.072.078.16.117.26.117.113 0 .252-.064.412-.186.438-.344.878-.836 1.324-1.475l.402.266c-.523.799-1.135 1.469-1.841 2.012-.521.41-1.021.611-1.494.611-.314 0-.572-.096-.771-.281-.199-.189-.299-.424-.299-.707 0-.285.096-.756.287-1.416l1.496-5.152c.246-.846.367-1.375.367-1.59 0-.168-.059-.307-.178-.414-.119-.104-.281-.16-.488-.16-.17 0-.518.043-1.047.127v-.448l3.97-.646zm-.15-4.566c.322 0 .596.111.818.334.221.223.334.494.334.814 0 .315-.113.586-.342.812-.227.227-.494.339-.811.339-.312 0-.584-.112-.811-.339s-.339-.497-.339-.812c0-.32.111-.592.333-.814s.494-.334.818-.334z"/></svg>