<svg xmlns="http://www.w3.org/2000/svg" xmlns:xlink="http://www.w3.org/1999/xlink" width="50" height="50"><defs><rect id="a" width="50" height="50"/></defs><clipPath id="b"><use xlink:href="#a" overflow="visible"/></clipPath><path fill="#1E5189" d="M39.915 0h-29.915c-5.521 0-10 4.491-10 10.031v29.926c0 5.541 4.477 10.033 10 10.033h29.916c5.523 0 10-4.492 10-10.033v-29.926c0-5.54-4.477-10.031-10.001-10.031z" clip-path="url(#b)"/><defs><rect id="c" width="50" height="50"/></defs><clipPath id="d"><use xlink:href="#c" overflow="visible"/></clipPath><path fill="#fff" d="M38.783 2.021h-27.569c-5.089 0-9.215 4.131-9.215 9.227v27.525c0 5.099 4.125 9.229 9.215 9.229h27.569c5.089 0 9.215-4.13 9.215-9.229v-27.525c0-5.096-4.126-9.227-9.215-9.227z" clip-path="url(#d)"/><polyline stroke="#1E5189" stroke-width="4.3" stroke-linecap="round" stroke-linejoin="round" stroke-miterlimit="10" points="25.785,41.104 25.785,29.492 15.452,29.492 20.619,17.353 24.655,26.94 28.368,17.353" fill="none"/><circle fill="#1E5189" stroke="#1E5189" stroke-width="2.323" stroke-linecap="round" stroke-linejoin="round" stroke-miterlimit="10" cx="24.775" cy="12.853" r="2.25"/><circle fill="#1E5189" stroke="#1E5189" stroke-width="2" stroke-linecap="round" stroke-linejoin="round" stroke-miterlimit="10" cx="36.427" cy="9.428" r="1.937"/><path fill="#1E5189" d="M32.633 23.126v-6.068c0-1.969 1.699-3.564 3.795-3.564 2.095 0 3.793 1.596 3.793 3.564v6.068"/><g stroke="#1E5189" stroke-width="1.6" stroke-miterlimit="10" fill="none"><polyline points="11.04,21.603 12.04,33.468 20.919,33.468 20.919,42.509"/><line x1="12.04" y1="33.468" x2="9.779" y2="42.509"/></g></svg>