<svg xmlns="http://www.w3.org/2000/svg" xmlns:xlink="http://www.w3.org/1999/xlink" width="50" height="50"><defs><rect id="a" width="50" height="50"/></defs><clipPath id="b"><use xlink:href="#a" overflow="visible"/></clipPath><path fill="#005093" d="M39.915 0h-29.915c-5.521 0-10 4.491-10 10.031v29.926c0 5.541 4.477 10.033 10 10.033h29.916c5.523 0 10-4.492 10-10.033v-29.926c0-5.54-4.477-10.031-10.001-10.031z" clip-path="url(#b)"/><defs><rect id="c" width="50" height="50"/></defs><clipPath id="d"><use xlink:href="#c" overflow="visible"/></clipPath><path fill="#fff" d="M38.783 2.021h-27.569c-5.089 0-9.215 4.131-9.215 9.227v27.525c0 5.099 4.125 9.229 9.215 9.229h27.569c5.089 0 9.215-4.13 9.215-9.229v-27.525c0-5.096-4.126-9.227-9.215-9.227z" clip-path="url(#d)"/><path d="M13.981 15.944v7.344h-4.088v-17.052h7.74c3.534 0 6.222.955 6.222 4.092 0 1.865-.613 3.82-3.358 4.115v.045c2.424.251 3.154 1.456 3.154 3.092 0 .705-.117 4.888.877 5.389v.318h-4.499c-.496-1.093-.408-3.184-.438-4.32-.028-1.046 0-2.479-1.402-2.797-1.109-.25-2.307-.227-3.476-.227h-.732zm0-2.501h3.214c1.343-.068 2.395-.75 2.395-2.456 0-1.909-1.021-2.228-2.57-2.25h-3.038v4.706zm13.699 9.845v-17.052h11.51v2.5h-7.42v4.297h6.834v2.501h-6.834v5.25h7.42v2.502h-11.51z" fill="#1E5189"/><path d="M9.893 44.279v-16.943h4.17v6.71h5.841v-6.71h4.17v16.943h-4.17v-7.748h-5.841v7.748h-4.17zm16.443 0l5.334-16.943h5.631l5.064 16.943h-4.468l-1.103-4.292h-4.887l-1.102 4.292h-4.469zm6.227-6.776h3.575l-1.133-4.813c-.208-.79-.297-1.558-.416-2.348-.029-.385-.089-.769-.149-1.131h-.06c-.06.362-.119.746-.148 1.131-.119.79-.209 1.558-.418 2.348l-1.251 4.813z" fill="#1E5189"/></svg>