<svg xmlns="http://www.w3.org/2000/svg" xmlns:xlink="http://www.w3.org/1999/xlink" width="50" height="50"><defs><rect id="a" width="50" height="50"/></defs><clipPath id="b"><use xlink:href="#a" overflow="visible"/></clipPath><path fill="#005093" d="M39.915 0h-29.915c-5.521 0-10 4.491-10 10.031v29.926c0 5.541 4.477 10.033 10 10.033h29.916c5.523 0 10-4.492 10-10.033v-29.926c0-5.54-4.477-10.031-10.001-10.031z" clip-path="url(#b)"/><defs><rect id="c" width="50" height="50"/></defs><clipPath id="d"><use xlink:href="#c" overflow="visible"/></clipPath><path fill="#fff" d="M38.783 2.021h-27.569c-5.089 0-9.215 4.131-9.215 9.227v27.525c0 5.099 4.125 9.229 9.215 9.229h27.569c5.089 0 9.215-4.13 9.215-9.229v-27.525c0-5.096-4.126-9.227-9.215-9.227z" clip-path="url(#d)"/><g stroke="#005093" stroke-miterlimit="10"><path fill="#fff" d="M17.635 32.365c.469.469.745.946.324 1.366l-1.031 1.031c-.42.422-1.141.385-1.609-.084-.467-.467-.502-1.188-.082-1.607l1.031-1.031c.42-.421.9-.143 1.367.325z"/><line x1="15.318" y1="34.681" x2="8.123" y2="41.877" fill="none"/><rect x="32.649" y="9.476" transform="matrix(-.707 -.707 .707 -.707 47.087 51.205)" fill="#fff" width="3" height="12.75"/><path fill="#fff" d="M30.84 23.136l-10.611 10.611c-.899.9-1.814.034-2.914-1.062-1.099-1.101-1.963-2.014-1.062-2.914l10.611-10.611 3.976 3.976z"/><rect x="37.09" y="7.756" transform="matrix(-.707 .707 -.707 -.707 73.581 -6.958)" fill="#fff" width="2.285" height="8.022"/><rect x="28.525" y="13.984" transform="matrix(-.707 .707 -.707 -.707 64.994 13.797)" fill="#fff" width="2.229" height="12.75"/><line x1="18.607" y1="29.847" x2="20.154" y2="31.394" fill="none"/><line x1="20.648" y1="27.804" x2="22.197" y2="29.351" fill="none"/><line x1="22.693" y1="25.761" x2="24.24" y2="27.308" fill="none"/><line x1="24.734" y1="23.717" x2="26.283" y2="25.265" fill="none"/></g></svg>