<svg xmlns="http://www.w3.org/2000/svg" width="30" height="25"><circle stroke="#fff" stroke-width=".933" stroke-miterlimit="10" cx="15" cy="12.415" r="11.666" fill="none"/><path fill="#fff" d="M17.549 8.356l-2.707 9.584c-.183.647-.273 1.034-.273 1.162 0 .146.043.265.13.355s.189.137.308.137c.137 0 .301-.073.492-.219.519-.41 1.044-.993 1.572-1.75l.479.314c-.619.948-1.348 1.745-2.187 2.393-.62.483-1.212.725-1.777.725-.374 0-.679-.112-.916-.335-.237-.223-.355-.504-.355-.841s.114-.897.342-1.682l1.777-6.125c.292-1.002.438-1.631.438-1.887 0-.2-.07-.364-.212-.492-.142-.127-.335-.191-.581-.191-.201 0-.615.05-1.244.15v-.532l4.714-.766zm-.178-5.427c.383 0 .707.132.971.396.266.265.396.588.396.971 0 .374-.135.695-.402.964-.27.269-.59.403-.965.403-.373 0-.695-.134-.963-.403-.27-.269-.404-.59-.404-.964 0-.383.133-.706.396-.971.266-.264.588-.396.971-.396z"/></svg>