<svg xmlns="http://www.w3.org/2000/svg" width="999.875" height="1394.825"><path fill="#144A92" d="M124 1338.5h-117.5c-3.038 0-5.5-2.463-5.5-5.5v-623.57c0-3.035 2.46-5.498 5.497-5.5 158.431-.098 159.353-.008 159.699.025 3.023.293 5.237 2.98 4.945 6.004-.283 2.928-2.823 5.102-5.715 4.967-3.593-.068-98.777-.031-153.427.002v612.572h106.5v-38.5c0-3.037 2.462-5.5 5.5-5.5s5.5 2.463 5.5 5.5v44c.001 3.038-2.461 5.5-5.499 5.5z"/><path fill="#144A92" d="M993.875 1338.5h-117.5c-3.037 0-5.5-2.463-5.5-5.5v-44c0-3.039 2.463-5.5 5.5-5.5s5.5 2.461 5.5 5.5v38.5h106.5v-612.57h-238.374c-3.037 0-5.5-2.463-5.5-5.5 0-3.035 2.463-5.5 5.5-5.5h243.874c3.037 0 5.5 2.465 5.5 5.5v623.57c0 3.038-2.463 5.5-5.5 5.5z"/><polygon fill="#7AA6C9" points="0,0 0,55.042 557.875,55.042 557.875,100.938 999.875,100.938 999.875,55.042 999.875,54.25 999.875,0"/><rect y="95" fill="#7AA6C9" width="490.875" height="55"/><rect x="217.984" y="592.917" fill="#7AA6C9" width="484.937" height="55"/><rect x="36.026" y="776.854" fill="#144A92" width="414.808" height="55"/><rect x="36.026" y="872.854" fill="#7AA6C9" width="414.808" height="55"/><rect x="36.026" y="969.688" fill="#7AA6C9" width="414.808" height="328.146"/><rect x="469.9" y="776.854" fill="#144A92" width="490.975" height="55"/><rect x="469.9" y="872.854" fill="#7AA6C9" width="490.975" height="424.979"/><rect y="300.979" fill="#7AA6C9" width="999.875" height="55"/><rect y="402.896" fill="#7AA6C9" width="999.875" height="149.729"/><rect x="557.918" y="174" fill="#7AA6C9" width="441.957" height="101"/><polygon fill="#4682B4" points="452.119,196.979 450.922,196.979 447.499,196.979 44.583,196.979 39.964,196.979 1.167,224.479 39.964,251.979 44.583,251.979 447.499,251.979 450.922,251.979 452.119,251.979 490.916,224.479"/><polygon fill="#4682B4" points="689.099,683.929 687.905,683.929 684.479,683.929 236.583,683.929 233,683.929 231.964,683.929 193.167,711.428 231.964,738.928 233,738.928 236.583,738.928 684.479,738.928 687.905,738.928 689.099,738.928 727.896,711.428"/><polygon fill="#7AA6C9" points="300.922,59.042 267.961,75.023 235,59.042 235,73 267.922,88.962 267.922,89 267.961,88.981 268,89 268,88.962 300.922,73"/><polygon fill="#7AA6C9" points="300.922,159.021 267.961,175.002 235,159.021 235,172.979 267.922,188.941 267.922,188.979 267.961,188.96 268,188.979 268,188.941 300.922,172.979"/><polygon fill="#4682B4" points="499.938,191.519 515.918,224.479 499.938,257.44 513.895,257.44 529.857,224.519 529.895,224.519 529.876,224.479 529.895,224.44 529.857,224.44 513.895,191.519"/><polygon fill="#4682B4" points="300.922,261.021 267.961,277.002 235,261.021 235,274.979 267.922,290.941 267.922,290.979 267.961,290.96 268,290.979 268,290.941 300.922,274.979"/><polygon fill="#7AA6C9" points="495.492,557.355 462.531,573.336 429.57,557.355 429.57,571.312 462.492,587.275 462.492,587.312 462.531,587.294 462.57,587.312 462.57,587.275 495.492,571.312"/><polygon fill="#7AA6C9" points="495.492,650.355 462.531,666.336 429.57,650.355 429.57,664.312 462.492,680.275 462.492,680.312 462.531,680.294 462.57,680.312 462.57,680.275 495.492,664.312"/><polygon fill="#4682B4" points="658.492,743.356 625.531,759.336 592.57,743.356 592.57,757.313 625.492,773.276 625.492,773.313 625.531,773.293 625.57,773.313 625.57,773.276 658.492,757.313"/><polygon fill="#144A92" points="770.662,742.389 754.682,709.428 770.662,676.468 756.705,676.468 740.742,709.389 740.705,709.389 740.724,709.428 740.705,709.467 740.742,709.467 756.705,742.389"/><polygon fill="#144A92" points="143.704,676.47 159.685,709.43 143.704,742.391 157.661,742.391 173.624,709.469 173.661,709.469 173.642,709.43 173.661,709.391 173.624,709.391 157.661,676.47"/><polygon fill="#144A92" points="658.492,838.356 625.531,854.336 592.57,838.356 592.57,852.313 625.492,868.276 625.492,868.313 625.531,868.293 625.57,868.313 625.57,868.276 658.492,852.313"/><polygon fill="#4682B4" points="338.992,743.356 306.031,759.336 273.07,743.356 273.07,757.313 305.992,773.276 305.992,773.313 306.031,773.293 306.07,773.313 306.07,773.276 338.992,757.313"/><polygon fill="#144A92" points="338.992,838.356 306.031,854.336 273.07,838.356 273.07,852.313 305.992,868.276 305.992,868.313 306.031,868.293 306.07,868.313 306.07,868.276 338.992,852.313"/><polygon fill="#7AA6C9" points="338.992,933.856 306.031,949.836 273.07,933.856 273.07,947.813 305.992,963.776 305.992,963.813 306.031,963.793 306.07,963.813 306.07,963.776 338.992,947.813"/><polygon fill="#7AA6C9" points="300.922,365.271 267.961,381.252 235,365.271 235,379.229 267.922,395.191 267.922,395.229 267.961,395.21 268,395.229 268,395.191 300.922,379.229"/><rect x="95.333" y="11" width="819.334" height="35.333" fill="none"/><text transform="translate(95.334 37.492)" fill="#fff" font-family="'ArialMT'" font-size="37">Persona priva di coscienza; Bambino immobile /</text><rect x="13.333" y="110" width="819.334" height="35.333" fill="none"/><text transform="translate(13.334 136.492)" fill="#fff" font-family="'ArialMT'" font-size="37">Chiamare aiuto ad alta voce</text><rect x="48.333" y="210.021" width="420.234" height="35.333" fill="none"/><text transform="translate(48.334 236.513)" fill="#fff" font-family="'ArialMT'" font-size="37">Respirazione normale?</text><rect x="331.384" y="265.647" width="91.616" height="35.333" fill="none"/><text transform="translate(331.383 292.139)" fill="#3C3C3B" font-family="'ArialMT'" font-size="37">no</text><rect x="484.884" y="265.647" width="43.116" height="35.333" fill="none"/><text transform="translate(484.885 292.139)" fill="#3C3C3B" font-family="'ArialMT'" font-size="37">sì</text><rect x="343.767" y="605.75" width="420.234" height="35.334" fill="none"/><text transform="translate(343.768 632.243)" fill="#fff" font-family="'ArialMT'" font-size="37">AED sul luogo</text><rect x="401.768" y="697.412" width="231.234" height="35.334" fill="none"/><text transform="translate(401.768 723.905)" fill="#fff" font-family="'ArialMT'" font-size="37">Ritmo?</text><rect x="138.768" y="794.522" width="231.234" height="35.334" fill="none"/><text transform="translate(138.768 821.012)" fill="#fff" font-family="'ArialMT'" font-size="37">defibrillabile</text><rect x="100.704" y="886.522" width="271.234" height="35.334" fill="none"/><text transform="translate(100.703 913.012)" fill="#fff" font-family="'ArialMT'" font-size="37">1 defibrillazione</text><rect x="171.415" y="1311.522" width="670.231" height="78.479" fill="none"/><text transform="translate(171.415 1338.012)" fill="#3C3C3B" font-family="'ArialMT'" font-size="37">BLS = Basic Life Support</text><text transform="translate(171.415 1384.825)" fill="#3C3C3B" font-family="'ArialMT'" font-size="37">AED = Automated external defibrillation</text><rect x="37.683" y="980.688" width="416.771" height="310.312" fill="none"/><text transform="translate(152.046 1007.18)" fill="#fff" font-family="'ArialMT'" font-size="37">Riprendere</text><text transform="translate(44.879 1053.18)" fill="#fff" font-family="'ArialMT'" font-size="37">immediatamente il BLS;</text><text transform="translate(55.875 1099.18)" fill="#fff" font-family="'ArialMT'" font-size="37">30 : 2 durante 2 minuti</text><text transform="translate(129.893 1145.18)" fill="#fff" font-family="'Arial-BoldMT'" font-size="37">o</text><text transform="translate(153.049 1145.18)" fill="#fff" font-family="'ArialMT'" font-size="37">almeno 100</text><text transform="translate(51.049 1191.18)" fill="#fff" font-family="'ArialMT'" font-size="37">compressioni toraciche</text><text transform="translate(112.61 1237.18)" fill="#fff" font-family="'ArialMT'" font-size="37">al minuto senza</text><text transform="translate(145.312 1283.18)" fill="#fff" font-family="'ArialMT'" font-size="37">ventilazione</text><rect x="577.088" y="794.522" width="277.234" height="35.334" fill="none"/><text transform="translate(577.088 821.012)" fill="#fff" font-family="'ArialMT'" font-size="37">non defibrillabile</text><rect x="469.9" y="888.522" width="490.975" height="393.479" fill="none"/><text transform="translate(478.861 915.012)" fill="#fff" font-family="'ArialMT'" font-size="37">Riprendere immediatamente</text><text transform="translate(539.891 960.512)" fill="#fff" font-family="'ArialMT'" font-size="37">il BLS; 30 : 2 durante</text><text transform="translate(529.758 1006.012)" fill="#fff" font-family="'ArialMT'" font-size="37">2 minuti</text><text transform="translate(671.924 1006.012)" fill="#fff" font-family="'Arial-BoldMT'" font-size="37">o</text><text transform="translate(694.783 1006.012)" fill="#fff" font-family="'ArialMT'" font-size="37">almeno 100</text><text transform="translate(523.477 1051.512)" fill="#fff" font-family="'ArialMT'" font-size="37">compressioni toraciche</text><text transform="translate(474.206 1097.012)" fill="#fff" font-family="'ArialMT'" font-size="37">al minuto senza ventilazione.</text><text transform="translate(499.144 1142.512)" fill="#fff" font-family="'ArialMT'" font-size="37">Continuare il BLS fino alla</text><text transform="translate(540.168 1188.012)" fill="#fff" font-family="'ArialMT'" font-size="37">consegna ai soccorsi</text><text transform="translate(495.015 1233.512)" fill="#fff" font-family="'ArialMT'" font-size="37">professionali oppure fino a</text><text transform="translate(512.01 1279.012)" fill="#fff" font-family="'ArialMT'" font-size="37">che la persona si muove</text><rect x="644.334" y="186.979" width="304.666" height="74.042" fill="none"/><text transform="translate(646.233 213.471)" fill="#fff" font-family="'ArialMT'" font-size="37">Posizione laterale</text><text transform="translate(696.143 257.872)" fill="#fff" font-family="'ArialMT'" font-size="37">di sicurezza</text><rect x="121.628" y="314.979" width="778.372" height="74.044" fill="none"/><text transform="translate(121.628 341.471)" fill="#fff" font-family="'ArialMT'" font-size="37">Allarmare</text><text transform="translate(291.775 341.471)" fill="#fff" font-family="'ArialMT'" font-size="37" letter-spacing="-2">T</text><text transform="translate(310.498 341.471)" fill="#fff" font-family="'ArialMT'" font-size="37">el 144; Prendere o richiedere</text><text transform="translate(802.586 341.471)" fill="#fff" font-family="'ArialMT'" font-size="37">AED</text><rect x="38.295" y="418.979" width="927.705" height="122.021" fill="none"/><text transform="translate(56.648 445.471)" fill="#fff" font-family="'ArialMT'" font-size="37">30 compressioni toraciche seguite da 2 ventilazioni</text><text transform="translate(925.053 445.471)" fill="#fff" font-family="'Arial-BoldMT'" font-size="37">o</text><text transform="translate(65.767 489.87)" fill="#fff" font-family="'ArialMT'" font-size="37">almeno 100 compressioni toraciche al minuto senza</text><text transform="translate(215.704 534.27)" fill="#fff" font-family="'ArialMT'" font-size="37">ventilazione fino all’arrivo del</text><text transform="translate(711.633 534.27)" fill="#fff" font-family="'ArialMT'" font-size="37">AED</text><rect x="573" y="54.354" width="335.334" height="35.333" fill="none"/><text transform="translate(573.001 80.846)" fill="#fff" font-family="'ArialMT'" font-size="37">senza reazione</text></svg>