<svg xmlns="http://www.w3.org/2000/svg" xmlns:xlink="http://www.w3.org/1999/xlink" width="40" height="40"><defs><path id="a" d="M0 32.363c0 4.184 3.389 7.574 7.57 7.574h24.793c4.182 0 7.571-3.391 7.571-7.574v-24.791c.001-4.182-3.389-7.572-7.571-7.572h-24.793c-4.181 0-7.57 3.39-7.57 7.572v24.791z"/></defs><clipPath id="b"><use xlink:href="#a" overflow="visible"/></clipPath><g clip-path="url(#b)"><polygon fill="#BDA486" points="47.252,-0.993 20.377,24.748 46.495,37.807"/><path fill="#98866B" d="M42.426 15.345c-1.45 1.201-12.476 6.823-12.791 8.928-.245-1.285.931-11.008.931-11.008l2.934-.348s6.121-4.133 8.455-1.387c2.331 2.745.471 3.815.471 3.815z"/><polygon fill="#708CC2" points="48.278,36.549 19.32,24.688 3.043,42.287 47.71,41.709"/><polygon fill="#8ABF69" points="45.109,-0.93 0,43.225 -7.066,21.402 -4.479,-4.21"/><polygon fill="#EEEEAF" points="43.756,3.304 40.739,0.284 1.766,39.258 4.784,42.275 20.015,27.043 40.739,35.867 42.82,32.223 23.2,23.857"/><path fill="#fff" stroke="#fff" stroke-width=".099" stroke-miterlimit="10" d="M13.935 26.049c-1.266-1.277-.923-3.076.432-4.236 2.099-1.844 5.529-3.973 5.458-8.941.119-4.55-3.58-7.465-3.58-7.465h3.344l3.344-2.489h-15.331c-4.338.158-8.706 4.118-9.685 5.503l-.804 10.27c2.555 2.128 4.195 5.333 11.164 4.588-1.165 1.783-1.023 4.133 1.138 6.324-4.826-.203-12.239 2.321-12.875 2.922-.638.604 2.183 5.533 2.183 5.533-.425-6.246 10.125-7.176 12.933-6.766.899.994 4.873 3.422 5.943 4.957 1.485 2.031.239 6.432.239 6.432s.544 1.914 3.052-1.443c3.003-3.881 1.017-8.141-.213-9.344-1.53-1.499-5.442-4.544-6.742-5.845zm-3.513-5.018c-3.146.85-6.657-2.01-7.84-6.39-1.184-4.379.407-8.619 3.553-9.47 3.147-.849 6.657 2.011 7.84 6.392 1.184 4.377-.407 8.619-3.553 9.468z"/></g><g fill="#E95E51" stroke="#E95E51" stroke-width=".527" stroke-linecap="round" stroke-linejoin="round" stroke-miterlimit="10"><path d="M35.728 8.942c0-3.474-2.816-6.291-6.292-6.291s-6.291 2.817-6.291 6.291c0 1.575.66 2.803 1.537 4.115 1.672 2.677 4.518 6.208 4.754 11.035.237-4.828 3.083-8.36 4.756-11.039.846-1.25 1.536-2.536 1.536-4.111z"/><polygon points="29.436,24.096 29.436,24.096 29.436,24.092"/></g><circle fill="#7C141F" cx="29.436" cy="8.892" r="2.157"/></svg>