<svg xmlns="http://www.w3.org/2000/svg" xmlns:xlink="http://www.w3.org/1999/xlink" width="30" height="30" viewBox="25 25 30 30" enable-background="new 25 25 30 30"><defs><rect id="a" x="24.998" y="25.001" width="30.002" height="30.002"/></defs><clipPath id="b"><use xlink:href="#a" overflow="visible"/></clipPath><circle fill="#979797" cx="39.999" cy="40.002" r="12.001" clip-path="url(#b)"/><defs><rect id="c" x="24.998" y="25.001" width="30.002" height="30.002"/></defs><clipPath id="d"><use xlink:href="#c" overflow="visible"/></clipPath><path fill="#fff" d="M44.548 36.447l-1.014-1.013c-.186-.187-.488-.187-.675 0l-2.87 2.871-2.871-2.871c-.186-.187-.488-.187-.674 0l-1.014 1.013c-.187.186-.187.489 0 .674l2.87 2.871-2.87 2.87c-.187.187-.187.49 0 .675l1.014 1.014c.186.187.489.187.674 0l2.871-2.87 2.87 2.87c.187.187.489.187.675 0l1.014-1.014c.186-.185.186-.488 0-.675l-2.871-2.87 2.871-2.871c.185-.184.185-.488 0-.674zm-4.537-9.446c-7.18 0-13.001 5.821-13.001 13.001 0 7.181 5.821 13.001 13.001 13.001s13-5.82 13-13.001c0-7.18-5.821-13.001-13-13.001zm0 23.002c-5.523 0-10-4.479-10-10.001 0-5.524 4.477-10.001 10-10.001s10 4.477 10 10.001c0 5.522-4.477 10.001-10 10.001z" clip-path="url(#d)"/></svg>